<?xml version="1.0" encoding="UTF-8"?>
<svg version="1.1" xmlns="http://www.w3.org/2000/svg" width="198" height="198">
<path d="M0 0 C65.34 0 130.68 0 198 0 C198 65.34 198 130.68 198 198 C132.66 198 67.32 198 0 198 C0 132.66 0 67.32 0 0 Z " fill="#FDFEFF" transform="translate(0,0)"/>
<path d="M0 0 C0.76166977 0.00222061 1.52333954 0.00444122 2.30809021 0.00672913 C3.16890701 0.00680466 4.02972382 0.00688019 4.91662598 0.00695801 C5.8520372 0.01211929 6.78744843 0.01728058 7.75120544 0.02259827 C8.70422043 0.02401321 9.65723541 0.02542816 10.63912964 0.02688599 C13.69605085 0.032503 16.75289996 0.04505836 19.80979919 0.05775452 C21.87685543 0.06276733 23.94391281 0.06733061 26.01097107 0.07142639 C31.08977507 0.08247795 36.16852489 0.09975397 41.24729919 0.12025452 C42.19628602 3.17752914 42.45220303 4.64643169 41.16184998 7.63026428 C40.59450134 8.51512512 40.02715271 9.39998596 39.44261169 10.31166077 C38.48657043 11.83025696 38.48657043 11.83025696 37.51121521 13.37953186 C36.45245178 15.01462708 36.45245178 15.01462708 35.37229919 16.68275452 C34.6387464 17.84004423 33.9069254 18.99843327 33.17674255 20.15785217 C32.03339117 21.97251847 30.88882173 23.78630782 29.73880005 25.59675598 C26.0300534 31.43543392 22.43427528 37.33942539 18.85823059 43.26002502 C17.44655116 45.59645618 16.03079908 47.93040857 14.61517334 50.26445007 C13.54357175 52.03140414 12.47252596 53.79869406 11.40159607 55.5660553 C7.79106151 61.52368333 4.17523758 67.47810167 0.55979919 73.43275452 C0.02824219 74.30832504 0.02824219 74.30832504 -0.51405334 75.20158386 C-7.01805068 85.91473895 -13.53227005 96.62164988 -20.05104065 107.32582092 C-22.95229518 112.09020533 -25.85243287 116.85526949 -28.75270081 121.62025452 C-29.91936231 123.53692432 -31.08602897 125.45359099 -32.25270081 127.37025452 C-32.83020081 128.31900452 -33.40770081 129.26775452 -34.00270081 130.24525452 C-35.75270081 133.12025452 -37.50270081 135.99525452 -39.25270081 138.87025452 C-39.8309259 139.82029358 -40.409151 140.77033264 -41.00489807 141.74916077 C-42.16388897 143.65302065 -43.32322767 145.55666886 -44.48292542 147.46009827 C-47.52001515 152.44596944 -50.54978409 157.43610111 -53.56910706 162.43275452 C-54.50980042 163.98639709 -54.50980042 163.98639709 -55.46949768 165.57142639 C-56.66445864 167.54532487 -57.85730664 169.52050468 -59.04762268 171.49720764 C-67.54327826 185.51554324 -67.54327826 185.51554324 -70.75270081 187.12025452 C-72.11115274 187.20927944 -73.47386055 187.23785583 -74.83522034 187.23377991 C-76.09630112 187.23366661 -76.09630112 187.23366661 -77.38285828 187.23355103 C-78.74542252 187.2258091 -78.74542252 187.2258091 -80.13551331 187.21791077 C-81.0649173 187.21649582 -81.99432129 187.21508087 -82.95188904 187.21362305 C-85.92719205 187.20801504 -88.90242045 187.19546119 -91.87770081 187.18275452 C-93.89202264 187.17774055 -95.90634565 187.17317746 -97.92066956 187.16908264 C-102.86470882 187.15804301 -107.80869215 187.140773 -112.75270081 187.12025452 C-113.87889099 183.41230774 -113.87889099 183.41230774 -112.74317932 180.78382874 C-112.21136047 179.92289612 -111.67954163 179.0619635 -111.13160706 178.17494202 C-110.53428772 177.19420715 -109.93696838 176.21347229 -109.32154846 175.20301819 C-108.65945374 174.14445618 -107.99735901 173.08589417 -107.31520081 171.99525452 C-106.2760041 170.30006644 -105.236808 168.60487799 -104.19764709 166.90966797 C-102.74815484 164.55230699 -101.28718346 162.20214697 -99.82661438 159.85163879 C-98.1384908 157.13001324 -96.46348351 154.40036783 -94.78785706 151.67103577 C-92.14843345 147.37359316 -89.50307724 143.07988343 -86.85426331 138.78822327 C-82.6208076 131.91874663 -78.43362119 125.02176413 -74.25270081 118.12025452 C-68.13524549 108.02333654 -61.96975533 97.95737251 -55.77223206 87.90931702 C-50.89834811 80.00002794 -46.06699923 72.06586858 -41.25270081 64.12025452 C-35.07518601 53.92496714 -28.85289841 43.75846658 -22.59425354 33.61268616 C-17.35802001 25.11977879 -12.16667065 16.6001704 -7.00392151 8.06239319 C-6.45824524 7.16238586 -5.91256897 6.26237854 -5.35035706 5.33509827 C-4.87090637 4.54224426 -4.39145569 3.74939026 -3.8974762 2.93251038 C-2.13770165 0.1466698 -2.13770165 0.1466698 0 0 Z " fill="#3DA8FF" transform="translate(116.75270080566406,4.8797454833984375)"/>
<path d="M0 0 C1.36560059 0.00303635 1.36560059 0.00303635 2.75878906 0.00613403 C3.68723633 0.00517731 4.61568359 0.00422058 5.57226562 0.00323486 C7.53938871 0.00255298 9.50651403 0.00440781 11.47363281 0.00857544 C14.49581932 0.01392358 17.51785721 0.00863071 20.54003906 0.00222778 C22.44628939 0.00288856 24.35253963 0.00416972 26.25878906 0.00613403 C27.16918945 0.0041098 28.07958984 0.00208557 29.01757812 0 C35.39383938 0.02399685 35.39383938 0.02399685 36.50878906 1.13894653 C36.94457345 5.33036701 36.01025227 7.53569468 33.75488281 11.03347778 C32.85552002 12.44826416 32.85552002 12.44826416 31.93798828 13.89163208 C30.95209717 15.40624023 30.95209717 15.40624023 29.94628906 16.95144653 C28.56189035 19.12053605 27.17778389 21.28981212 25.79394531 23.45925903 C24.72490967 25.12263306 24.72490967 25.12263306 23.63427734 26.8196106 C20.34143878 31.96197598 17.11341449 37.14424075 13.88378906 42.32644653 C13.26544189 43.31539917 12.64709473 44.30435181 12.01000977 45.32327271 C7.86257794 51.95666025 3.74346861 58.60712501 -0.36621094 65.26394653 C-14.52561433 88.17334992 -14.52561433 88.17334992 -17.49121094 91.13894653 C-19.31947327 91.38618469 -19.31947327 91.38618469 -21.55786133 91.38186646 C-22.81410057 91.3864814 -22.81410057 91.3864814 -24.09571838 91.39118958 C-25.00095749 91.38400406 -25.90619659 91.37681854 -26.83886719 91.36941528 C-27.76589951 91.36895706 -28.69293182 91.36849884 -29.64805603 91.36802673 C-31.60921508 91.36500307 -33.57037169 91.35711339 -35.53149414 91.34475708 C-38.54484496 91.32650025 -41.55788872 91.32424736 -44.57128906 91.32449341 C-46.47298445 91.31957838 -48.37467773 91.31375013 -50.27636719 91.30691528 C-51.63726219 91.30524605 -51.63726219 91.30524605 -53.02565002 91.30354309 C-59.37516646 91.25499101 -59.37516646 91.25499101 -60.49121094 90.13894653 C-60.8793918 86.12631447 -60.15753454 84.01176643 -57.95605469 80.68191528 C-57.40183838 79.82936157 -56.84762207 78.97680786 -56.27661133 78.09841919 C-55.6668042 77.18366821 -55.05699707 76.26891724 -54.42871094 75.32644653 C-53.13333331 73.33888619 -51.83910085 71.35057911 -50.54589844 69.36160278 C-49.87397461 68.3343811 -49.20205078 67.30715942 -48.50976562 66.24880981 C-45.29356273 61.29380346 -42.17383507 56.27980055 -39.05371094 51.26394653 C-37.80251689 49.25867079 -36.55121401 47.25346294 -35.29980469 45.24832153 C-34.03017201 43.21192644 -32.76064216 41.17546722 -31.49121094 39.13894653 C-7.10935082 0.02675581 -7.10935082 0.02675581 0 0 Z " fill="#3DA8FF" transform="translate(156.4912109375,100.86105346679688)"/>
</svg>
