<svg width="1000" height="1000" viewBox="0 0 1000 1000" fill="none" xmlns="http://www.w3.org/2000/svg">
<mask id="mask0_113_120" style="mask-type:alpha" maskUnits="userSpaceOnUse" x="0" y="0" width="1000" height="1000">
<circle cx="500" cy="500" r="500" fill="#D9D9D9"/>
</mask>
<g mask="url(#mask0_113_120)">
</g>
<mask id="mask1_113_120" style="mask-type:alpha" maskUnits="userSpaceOnUse" x="0" y="0" width="1000" height="1000">
<circle cx="500" cy="500" r="500" fill="#FF0000"/>
</mask>
<g mask="url(#mask1_113_120)">
<circle cx="501" cy="500" r="500" fill="#999999"/>
<path d="M166.159 505.811L4.39771 581.036L77.4276 351.046L166.159 505.811Z" fill="white"/>
<path d="M240.75 700.395C238.533 704.661 234.406 707.606 229.651 708.314L50.4869 735.001C42.5152 736.189 35.03 730.864 33.5367 722.944L7.47579 584.726C6.39266 578.982 8.74557 573.131 13.5044 569.736L183.086 448.751C186.151 446.565 189.947 445.613 193.683 446.08C274.751 456.217 322.226 462.564 330.412 522.389C330.807 525.279 330.224 528.237 328.878 530.825L240.75 700.395Z" fill="white"/>
<path d="M940.289 776.962C888.226 865.728 810.04 936.268 716.403 978.955C622.766 1021.64 518.238 1034.4 417.083 1015.48C315.929 996.561 223.075 946.891 151.194 873.249C79.3127 799.606 31.9052 705.578 15.4409 603.995L219.499 570.922C229.156 630.506 256.963 685.659 299.126 728.855C341.288 772.051 395.752 801.185 455.085 812.281C514.419 823.378 575.73 815.896 630.654 790.858C685.578 765.82 649.954 663.754 761.977 672.377C874 681 911.363 736.062 940.289 776.962Z" fill="white"/>
<path d="M780.996 123.751C791.217 110.016 810.709 107.096 823.784 118.149C894.16 177.637 946.892 255.57 975.866 343.469C1008.08 441.204 1009.36 546.5 979.517 644.987C949.677 743.474 890.174 830.354 809.129 893.772C736.241 950.808 649.122 986.367 557.564 996.791C540.553 998.727 525.96 985.48 525.081 968.381L524.099 949.286C523.22 932.188 536.394 917.732 553.38 915.592C628.256 906.155 699.401 876.63 759.138 829.886C827.034 776.757 876.883 703.972 901.882 621.464C926.881 538.956 925.813 450.743 898.823 368.864C875.077 296.826 832.283 232.778 775.237 183.371C762.295 172.162 759.36 152.826 769.581 139.091L780.996 123.751Z" fill="white"/>
<path d="M662.747 500.474C660.009 502.211 658.306 505.203 658.212 508.445C655.172 612.803 684.879 715.458 743.096 802.025C746.178 806.608 752.424 807.695 756.945 804.522L809.705 767.486C814.226 764.313 815.307 758.082 812.243 753.487C764.131 681.314 739.773 595.828 742.698 509.011C742.751 507.432 742.44 505.842 741.752 504.419C726.876 473.642 709.935 470.549 662.747 500.474Z" fill="white"/>
<path d="M351.485 647.4C344.776 645.641 337.614 648.057 333.596 653.711C298.586 702.985 287.912 767.848 302.941 840.216C304.356 847.028 309.784 852.247 316.595 853.665L351.337 860.899C364.273 863.592 375.666 851.85 373.878 838.758C366.543 785.063 376.945 737.163 404.216 700.185C406.76 696.736 408.325 692.55 407.755 688.302C405.103 668.567 392.084 658.048 351.485 647.4Z" fill="white"/>
<path d="M675.338 574.6C646.445 580.949 619.171 592.562 595.074 608.775C570.977 624.988 550.528 645.485 534.895 669.094C519.262 692.703 508.75 718.962 503.962 746.373C499.173 773.783 500.2 801.808 506.984 828.847L689.293 788.786C688.131 784.152 687.955 779.349 688.775 774.651C689.596 769.954 691.397 765.453 694.077 761.407C696.756 757.361 700.26 753.848 704.39 751.07C708.52 748.291 713.194 746.301 718.146 745.213L675.338 574.6Z" fill="white"/>
</g>
</svg>
